Coordinates
version=1
nRows=17
nColumns=24
inDegrees=yes

Units are S.I. units (second, meters, Newtons, ...)
Angles are in degrees.

endheader
time	pelvis_tilt	pelvis_list	pelvis_rotation	pelvis_tx	pelvis_ty	pelvis_tz	hip_flexion_r	hip_adduction_r	hip_rotation_r	knee_angle_r	ankle_angle_r	subtalar_angle_r	mtp_angle_r	hip_flexion_l	hip_adduction_l	hip_rotation_l	knee_angle_l	ankle_angle_l	subtalar_angle_l	mtp_angle_l	lumbar_extension	lumbar_bending	lumbar_rotation
      0.66200000	     -0.12022065	      3.54425227	      3.17171138	     -0.01031191	      0.96754988	      0.26219828	     25.17310784	     -5.06388102	     -4.17714259	      4.35064065	      3.34349073	     -5.89256506	     -0.10163235	    -26.47322486	      6.10729944	      9.22766165	      3.58191513	     11.40320712	     -4.36963725	      0.07132575	    -11.47616829	      6.91410908	    -13.89660002
      0.66616667	     -0.22126133	      3.40011189	      3.19492907	     -0.00444988	      0.96680947	      0.26257932	     25.32296720	     -4.88091040	     -3.67553058	      3.79055863	      3.09533401	     -6.40836790	     -0.13044817	    -26.52221727	      5.93252917	      9.06821981	      3.21423786	     11.38737018	     -4.20243039	      0.01472134	    -11.34214920	      7.12056823	    -13.85975522
      0.67033333	     -0.31027259	      3.22839677	      3.21758967	      0.00147345	      0.96611841	      0.26297220	     25.45425599	     -4.66588202	     -3.18774704	      3.20691580	      2.80841696	     -6.94578608	     -0.15656716	    -26.57167639	      5.73034610	      8.86988892	      2.82255312	     11.37097501	     -3.98186251	     -0.00150054	    -11.21763667	      7.36742590	    -13.82756058
      0.67450000	     -0.40585605	      3.04170015	      3.23655948	      0.00744216	      0.96544962	      0.26338840	     25.59794218	     -4.43014989	     -2.72316817	      2.58865774	      2.46928546	     -7.47173399	     -0.17781194	    -26.60101765	      5.51620893	      8.65673899	      2.40592200	     11.34475487	     -3.76261736	      0.02314782	    -11.08378152	      7.62855287	    -13.78373061
      0.67866667	     -0.50669532	      2.83874203	      3.25164017	      0.01346303	      0.96480086	      0.26381980	     25.75076433	     -4.17361598	     -2.28532455	      1.94560147	      2.06972613	     -7.98577206	     -0.19217692	    -26.61926486	      5.28828545	      8.44341575	      1.97763121	     11.29107943	     -3.55938997	      0.08502577	    -10.93821205	      7.90889606	    -13.73935751
      0.68283333	     -0.60514086	      2.61881004	      3.26298242	      0.01953274	      0.96418711	      0.26426772	     25.90106349	     -3.89469449	     -1.86825634	      1.28751485	      1.60879559	     -8.50773374	     -0.19871024	    -26.62615840	      5.04632865	      8.20798602	      1.52278889	     11.22476388	     -3.36182563	      0.19166717	    -10.79458879	      8.21199570	    -13.68581051
      0.68700000	     -0.70844660	      2.38401010	      3.26987168	      0.02565050	      0.96359720	      0.26473535	     26.06193178	     -3.59623848	     -1.48804385	      0.60984723	      1.09475914	     -9.00393213	     -0.19650949	    -26.62183236	      4.79165881	      7.97261285	      1.05791829	     11.12677519	     -3.18023454	      0.33468178	    -10.64059060	      8.53054076	    -13.63207066
      0.69116667	     -0.80372950	      2.13526858	      3.27576055	      0.03181260	      0.96305132	      0.26522498	     26.21283085	     -3.27958456	     -1.13500749	     -0.07206631	      0.53006787	     -9.51963728	     -0.17964917	    -26.60349845	      4.52426781	      7.70454243	      0.54539261	     11.02710734	     -3.00164172	      0.55704575	    -10.49292780	      8.86667476	    -13.57326168
      0.69533333	     -0.91943465	      1.87807096	      3.27193579	      0.03802457	      0.96250154	      0.26573590	     26.40269950	     -2.94980101	     -0.82278717	     -0.79117141	     -0.09129895	     -9.99611180	     -0.15425113	    -26.57111443	      4.25212069	      7.46664974	      0.05262299	     10.86937770	     -2.84905930	      0.79585336	    -10.31257619	      9.20727923	    -13.50976407
      0.69950000	     -1.01401114	      1.58298681	      3.26205168	      0.04431687	      0.96200749	      0.26621619	     26.58490849	     -2.58530136	     -0.62789191	     -1.55409398	     -0.62242603	    -10.23520186	     -0.14141644	    -26.56633512	      3.94766997	      7.24824771	     -0.42779231	     10.62435212	     -2.83140391	      0.91442122	    -10.15362591	      9.62599931	    -13.44662005
      0.70366667	     -1.12377352	      1.32821586	      3.25775757	      0.05057209	      0.96154005	      0.26677826	     26.76388208	     -2.25061401	     -0.31435297	     -2.26248818	     -1.40136097	    -10.90004749	     -0.08740980	    -26.48787083	      3.67717670	      6.94788785	     -1.02501683	     10.48380241	     -2.60139304	      1.28398805	     -9.97848244	      9.94883777	    -13.38461864
      0.70783333	     -1.22503494	      1.02799650	      3.24035663	      0.05691904	      0.96108990	      0.26732594	     26.98001401	     -1.87416318	     -0.17966046	     -3.08064091	     -2.00003048	    -11.19510015	      0.81723425	    -26.40666596	      3.36466637	      6.53662559	     -1.63450352	     10.23020621	     -2.29458967	      5.82424548	     -9.82642355	     10.33728953	    -13.26588955
      0.71200000	     -1.32485121	      0.73834589	      3.22168225	      0.06328472	      0.96069348	      0.26788854	     27.16996883	     -1.50475381	      0.00436552	     -3.84133321	     -2.73492628	    -11.63863532	      0.82662426	    -26.36286172	      3.06746424	      6.37369547	     -2.17480197	      9.88509357	     -2.39003362	      5.90041757	     -9.65694574	     10.72867695	    -13.24968462
      0.71616667	     -1.40017171	      0.43330077	      3.19223307	      0.06970978	      0.96034998	      0.26842895	     27.37203955	     -1.12411558	      0.06409183	     -4.69765818	     -3.29526916	    -11.82488132	      0.83207032	    -26.33348537	      2.76006045	      6.15068262	     -2.73617737	      9.50235080	     -2.42380402	      5.94995019	     -9.50481645	     11.15812328	    -13.17984817
      0.72033333	     -1.52885754	      0.15104390	      3.16767616	      0.07611262	      0.95997626	      0.26905531	     27.61418377	     -0.75683755	      0.22679865	     -5.51059783	     -4.01638321	    -12.35056156	      0.87044829	    -26.18752438	      2.46892026	      5.86926743	     -3.41830168	      9.21276632	     -2.28891666	      6.17353499	     -9.31758402	     11.50887653	    -13.11714525
      0.72450000	     -1.59841294	     -0.16889264	      3.12315551	      0.08260799	      0.95969903	      0.26963896	     27.82586736	     -0.35655391	      0.24143749	     -6.41143782	     -4.51020191	    -12.51142216	      0.88953409	    -26.13780471	      2.14940542	      5.62389485	     -4.02556395	      8.75827669	     -2.29739571	      6.28835274	     -9.18549222	     11.94770516	    -13.04765566
      0.72866667	     -1.69244695	     -0.45888106	      3.07499214	      0.08907249	      0.95940623	      0.27028880	     28.07576764	      0.02126375	      0.29107612	     -7.33699178	     -5.04017580	    -12.84061074	      1.84281278	    -25.98246284	      1.85180783	      5.20632064	     -4.78514129	      8.36296912	     -2.05554069	     11.09140336	     -9.03305542	     12.31874198	    -12.92622070
